<?xml version="1.0" encoding="utf-8"?>
<svg xmlns="http://www.w3.org/2000/svg" xmlns:xlink="http://www.w3.org/1999/xlink" style="margin: auto; background: rgb(0, 32, 63); display: block; shape-rendering: auto;" width="200px" height="200px" viewBox="0 0 100 100" preserveAspectRatio="xMidYMid">
<g transform="rotate(0 50 50)">
  <rect x="47" y="24" rx="3" ry="6" width="6" height="12" fill="#adefd1">
    <animate attributeName="opacity" values="1;0" keyTimes="0;1" dur="0.2976190476190476s" begin="-0.2728174603174603s" repeatCount="indefinite"></animate>
  </rect>
</g><g transform="rotate(30 50 50)">
  <rect x="47" y="24" rx="3" ry="6" width="6" height="12" fill="#adefd1">
    <animate attributeName="opacity" values="1;0" keyTimes="0;1" dur="0.2976190476190476s" begin="-0.24801587301587302s" repeatCount="indefinite"></animate>
  </rect>
</g><g transform="rotate(60 50 50)">
  <rect x="47" y="24" rx="3" ry="6" width="6" height="12" fill="#adefd1">
    <animate attributeName="opacity" values="1;0" keyTimes="0;1" dur="0.2976190476190476s" begin="-0.22321428571428573s" repeatCount="indefinite"></animate>
  </rect>
</g><g transform="rotate(90 50 50)">
  <rect x="47" y="24" rx="3" ry="6" width="6" height="12" fill="#adefd1">
    <animate attributeName="opacity" values="1;0" keyTimes="0;1" dur="0.2976190476190476s" begin="-0.1984126984126984s" repeatCount="indefinite"></animate>
  </rect>
</g><g transform="rotate(120 50 50)">
  <rect x="47" y="24" rx="3" ry="6" width="6" height="12" fill="#adefd1">
    <animate attributeName="opacity" values="1;0" keyTimes="0;1" dur="0.2976190476190476s" begin="-0.1736111111111111s" repeatCount="indefinite"></animate>
  </rect>
</g><g transform="rotate(150 50 50)">
  <rect x="47" y="24" rx="3" ry="6" width="6" height="12" fill="#adefd1">
    <animate attributeName="opacity" values="1;0" keyTimes="0;1" dur="0.2976190476190476s" begin="-0.1488095238095238s" repeatCount="indefinite"></animate>
  </rect>
</g><g transform="rotate(180 50 50)">
  <rect x="47" y="24" rx="3" ry="6" width="6" height="12" fill="#adefd1">
    <animate attributeName="opacity" values="1;0" keyTimes="0;1" dur="0.2976190476190476s" begin="-0.12400793650793651s" repeatCount="indefinite"></animate>
  </rect>
</g><g transform="rotate(210 50 50)">
  <rect x="47" y="24" rx="3" ry="6" width="6" height="12" fill="#adefd1">
    <animate attributeName="opacity" values="1;0" keyTimes="0;1" dur="0.2976190476190476s" begin="-0.0992063492063492s" repeatCount="indefinite"></animate>
  </rect>
</g><g transform="rotate(240 50 50)">
  <rect x="47" y="24" rx="3" ry="6" width="6" height="12" fill="#adefd1">
    <animate attributeName="opacity" values="1;0" keyTimes="0;1" dur="0.2976190476190476s" begin="-0.0744047619047619s" repeatCount="indefinite"></animate>
  </rect>
</g><g transform="rotate(270 50 50)">
  <rect x="47" y="24" rx="3" ry="6" width="6" height="12" fill="#adefd1">
    <animate attributeName="opacity" values="1;0" keyTimes="0;1" dur="0.2976190476190476s" begin="-0.0496031746031746s" repeatCount="indefinite"></animate>
  </rect>
</g><g transform="rotate(300 50 50)">
  <rect x="47" y="24" rx="3" ry="6" width="6" height="12" fill="#adefd1">
    <animate attributeName="opacity" values="1;0" keyTimes="0;1" dur="0.2976190476190476s" begin="-0.0248015873015873s" repeatCount="indefinite"></animate>
  </rect>
</g><g transform="rotate(330 50 50)">
  <rect x="47" y="24" rx="3" ry="6" width="6" height="12" fill="#adefd1">
    <animate attributeName="opacity" values="1;0" keyTimes="0;1" dur="0.2976190476190476s" begin="0s" repeatCount="indefinite"></animate>
  </rect>
</g>
<!-- [ldio] generated by https://loading.io/ --></svg>